<svg xmlns="http://www.w3.org/2000/svg" viewBox="0 0 100 100">
  <defs>
    <radialGradient id="bg" cx="50%" cy="55%" r="55%">
      <stop offset="0%" stop-color="#1e1008"/>
      <stop offset="100%" stop-color="#050201"/>
    </radialGradient>
    <linearGradient id="fire" x1="0.5" y1="1" x2="0.5" y2="0">
      <stop offset="0%" stop-color="#ffe566"/>
      <stop offset="22%" stop-color="#ffb300"/>
      <stop offset="55%" stop-color="#ff4400"/>
      <stop offset="90%" stop-color="#cc1100"/>
      <stop offset="100%" stop-color="#880800" stop-opacity="0.5"/>
    </linearGradient>
    <linearGradient id="core" x1="0.5" y1="1" x2="0.5" y2="0">
      <stop offset="0%" stop-color="#fff9c4"/>
      <stop offset="50%" stop-color="#ffcc00" stop-opacity="0.8"/>
      <stop offset="100%" stop-color="#ff9900" stop-opacity="0"/>
    </linearGradient>
    <filter id="gf" x="-20%" y="-20%" width="140%" height="140%">
      <feGaussianBlur stdDeviation="1.2" result="b"/>
      <feMerge>
        <feMergeNode in="b"/>
        <feMergeNode in="SourceGraphic"/>
      </feMerge>
    </filter>
  </defs>

  <circle cx="50" cy="50" r="49" fill="url(#bg)"/>
  <circle cx="50" cy="50" r="48.5" fill="none" stroke="#ff6600" stroke-width="1"/>
  <circle cx="50" cy="50" r="46" fill="none" stroke="#ff8800" stroke-width="0.3" opacity="0.4"/>

  <g filter="url(#gf)">
    <path d="M33 67 C31 60 32 52 35 46 C35.5 52 35 58 37 63 C37.5 65 38.5 66 39 65.5 C39.5 62 39 56 41 50 C42 58 40 66 38 71 Z"
          fill="#ff5500" opacity="0.65"/>
    <path d="M67 67 C69 60 68 52 65 46 C64.5 52 65 58 63 63 C62.5 65 61.5 66 61 65.5 C60.5 62 61 56 59 50 C58 58 60 66 62 71 Z"
          fill="#ff5500" opacity="0.65"/>
    <path d="M50 13
             C47 20 41 25 42 34
             C42.5 38 41 40 39 38
             C37 32 38 25 39 21
             C35 26 32 33 33 41
             C33 49 37 58 43 62
             C40 57 39 50 41 44
             C42 52 45 59 50 62
             C55 59 58 52 59 44
             C61 50 60 57 57 62
             C63 58 67 49 67 41
             C68 33 65 26 61 21
             C62 25 63 32 61 38
             C59 40 57.5 38 58 34
             C59 25 53 20 50 13 Z"
          fill="url(#fire)"/>
    <path d="M50 26 C48.5 31 46 35 47 40 C47.5 44 49 47 50 48 C51 47 52.5 44 53 40 C54 35 51.5 31 50 26 Z"
          fill="url(#core)" opacity="0.9"/>
  </g>
</svg>
