<svg xmlns="http://www.w3.org/2000/svg" viewBox="0 0 32 32">
  <defs>
    <radialGradient id="g1" cx="50%" cy="90%" r="80%" gradientUnits="userSpaceOnUse">
      <stop offset="0%"   stop-color="#ffcc00"/>
      <stop offset="35%"  stop-color="#ff6600"/>
      <stop offset="70%"  stop-color="#ff2200"/>
      <stop offset="100%" stop-color="#aa0000"/>
    </radialGradient>
    <radialGradient id="g2" cx="50%" cy="85%" r="60%" gradientUnits="userSpaceOnUse">
      <stop offset="0%"   stop-color="#fff176"/>
      <stop offset="50%"  stop-color="#ffb300"/>
      <stop offset="100%" stop-color="#ff6600" stop-opacity="0"/>
    </radialGradient>
  </defs>

  <!-- Llama exterior -->
  <path
    d="M16 1
       C14 5  8 8  9 14
       C9.5 17  8 18  7 17
       C5 14  6 10  7 8
       C4 11  3 15  4 19
       C5 24  9 28  16 30
       C23 28  27 24  28 19
       C29 15  28 11  25 8
       C26 10  27 14  25 17
       C24 18  22.5 17  23 14
       C24 8  18 5  16 1 Z"
    fill="url(#g1)"
  />

  <!-- Llama interior (brillo central) -->
  <path
    d="M16 10
       C15 12  12.5 14  13 17
       C13.5 19.5  14.5 21  16 22
       C17.5 21  18.5 19.5  19 17
       C19.5 14  17 12  16 10 Z"
    fill="url(#g2)"
    opacity="0.9"
  />
</svg>
